# xmcd
#
# Track frame offsets:
#	150
#	14495
#	35257
#	53200
#	68462
#	85170
#	99210
#	118170
#	140872
#	165132
#	182705
#	199167
#	211167
#	231565
#	246677
#	262020
#	279480
#	299977
#	319542
#
# Disc length: 4450 seconds
#
# Revision: 1
# Processed by: cddbd v1.5.1PL0 Copyright (c) Steve Scherf et al.
# Submitted via: CDex 1.50Beta5
#
DISCID=20116013
DTITLE=Various Artist - フォーク・ポップス・グラフィティ 魔法の黄色い靴 ・ さよなら
DYEAR=1994
DGENRE=Pop
TTITLE0=チューリップ/魔法の黄色い靴
TTITLE1=ダウン・タウン・ブギウギ・バンド/港のヨーコ・ヨコハマ・ヨコスカ
TTITLE2=アリス/今はもうだれも
TTITLE3=りりィ/私は泣いています
TTITLE4=かまやつひろし/我が良き友よ
TTITLE5=アリス/冬の稲妻
TTITLE6=アリス/チャンピオン
TTITLE7=オフコース/さよなら
TTITLE8=オフコース/Yes - No
TTITLE9=オフコース/愛を止めないで
TTITLE10=チューリップ/心の旅
TTITLE11=チューリップ/銀の指輪
TTITLE12=チューリップ/虹とスニーカーの頃
TTITLE13=尾崎亜美/マイ・ピュア・レディ
TTITLE14=堀内孝雄/君のひとみは10000ボルト
TTITLE15=甲斐バンド/Hero ・ ヒーローになる時、それは今
TTITLE16=甲斐バンド/安奈
TTITLE17=寺尾聰/ルビーの指輪
TTITLE18=中原めいこ/君たちキウイ・パパイア・マンゴーだね
EXTD=
EXTT0=
EXTT1=
EXTT2=
EXTT3=
EXTT4=
EXTT5=
EXTT6=
EXTT7=
EXTT8=
EXTT9=
EXTT10=
EXTT11=
EXTT12=
EXTT13=
EXTT14=
EXTT15=
EXTT16=
EXTT17=
EXTT18=
PLAYORDER=
